<svg height="50px" viewBox="0 0 512 512" width="50px" xmlns="http://www.w3.org/2000/svg">
<path d="m435.699219 58.871094c-48.152344-37.964844-111.972657-58.871094-179.699219-58.871094s-131.546875 20.90625-179.699219 58.871094c-49.203125 38.789062-76.300781 90.6875-76.300781 146.128906 0 39.890625 14.175781 78.320312 41.039062 111.496094.796876 29.636718 25.136719 53.503906 54.960938 53.503906h5.550781c6.625 79.40625 73.359375 142 154.449219 142s147.824219-62.59375 154.449219-142h5.550781c29.824219 0 54.164062-23.867188 54.960938-53.503906 26.863281-33.175782 41.039062-71.605469 41.039062-111.496094 0-55.441406-27.097656-107.339844-76.300781-146.128906zm-334.699219 255.878906v.035156 25.214844h-5c-13.785156 0-25-11.214844-25-25s11.214844-25 25-25h5zm190 162.148438c-22.933594 6.777343-47.066406 6.777343-70 0v-15.734376c0-10.566406 8.597656-19.164062 19.167969-19.164062h31.664062c10.570313 0 19.167969 8.597656 19.167969 19.164062zm90-119.898438c0 45.136719-24.046875 84.757812-60 106.734375v-2.570313c0-27.109374-22.058594-49.164062-49.167969-49.164062h-31.664062c-27.109375 0-49.167969 22.054688-49.167969 49.164062v2.570313c-35.953125-21.976563-60-61.597656-60-106.734375v-23.300781l15.519531 3.449219c3.476563 24.195312 24.335938 42.851562 49.480469 42.851562 24.144531 0 44.347656-17.203125 48.992188-40h22.015624c4.644532 22.796875 24.84375 40 48.992188 40 25.144531 0 46-18.65625 49.480469-42.851562l15.519531-3.449219zm-205-27v-10h40v10c0 11.027344-8.972656 20-20 20s-20-8.972656-20-20zm120 0v-10h40v10c0 11.027344-8.972656 20-20 20s-20-8.972656-20-20zm85-27.03125-15 3.332031v-1.300781c0-8.285156-6.714844-15-15-15h-70c-8.285156 0-15 6.714844-15 15v5h-20v-5c0-8.285156-6.714844-15-15-15h-70c-8.285156 0-15 6.714844-15 15v1.300781l-15-3.332031v-47.792969c0-8.820312 4.507812-16.828125 12.058594-21.414062 4.054687-2.460938 8.472656-3.699219 12.910156-3.699219 3.890625 0 7.796875.953125 11.480469 2.867188 3.734375 1.9375 7.316406 3.984374 11.109375 6.152343 18.023437 10.300781 38.457031 21.976563 77.441406 21.976563 38.980469 0 59.414062-11.671875 77.441406-21.976563 3.792969-2.167969 7.375-4.214843 11.105469-6.152343 7.886719-4.09375 16.777344-3.792969 24.394531.832031 7.550782 4.585937 12.058594 12.59375 12.058594 21.414062zm35 37.03125h-5v-25.214844c0-.011718 0-.023437 0-.035156v-24.75h5c13.785156 0 25 11.214844 25 25s-11.214844 25-25 25zm43.453125-58.863281-.058594.128906c-10.074219-12.925781-25.773437-21.265625-43.394531-21.265625h-5v-4.824219c0-19.390625-9.898438-36.980469-26.484375-47.054687-16.535156-10.042969-36.648437-10.722656-53.796875-1.8125-4.265625 2.214844-8.277344 4.507812-12.160156 6.726562-16.925782 9.671875-31.542969 18.023438-62.558594 18.023438s-45.632812-8.351563-62.558594-18.023438c-3.882812-2.21875-7.894531-4.511718-12.160156-6.726562-17.148438-8.910156-37.261719-8.230469-53.796875 1.8125-16.585937 10.074218-26.484375 27.664062-26.484375 47.054687v4.824219h-5c-17.636719 0-33.351562 8.355469-43.421875 21.304688l-.03125-.167969c-14.816406-23.625-22.546875-49.558594-22.546875-76.136719 0-96.496094 101.382812-175 226-175s226 78.503906 226 175c0 26.578125-7.730469 52.511719-22.546875 76.136719zm0 0"/>
</svg>